<?xml version="1.0" standalone="no"?>
<!DOCTYPE svg PUBLIC "-//W3C//DTD SVG 20010904//EN"
 "http://www.w3.org/TR/2001/REC-SVG-20010904/DTD/svg10.dtd">
<svg version="1.0" xmlns="http://www.w3.org/2000/svg"
 width="700.000000pt" height="700.000000pt" viewBox="0 0 700.000000 700.000000"
 preserveAspectRatio="xMidYMid meet">
<metadata>
Created by potrace 1.11, written by Peter Selinger 2001-2013
</metadata>
<g transform="translate(0.000000,700.000000) scale(0.100000,-0.100000)"
fill="#000000" stroke="none">
<path d="M3417 6894 c-1 -1 -49 -5 -106 -8 -103 -6 -260 -25 -341 -41 -14 -3
-52 -10 -85 -16 -426 -76 -899 -268 -1266 -513 -127 -85 -128 -85 -224 -160
-122 -96 -151 -122 -291 -261 -269 -266 -461 -530 -628 -865 -95 -191 -206
-491 -241 -650 -24 -114 -55 -274 -60 -314 -4 -27 -9 -58 -11 -70 -2 -11 -6
-50 -9 -86 -4 -36 -8 -85 -11 -110 -7 -70 -7 -396 0 -480 9 -100 16 -170 21
-200 2 -14 6 -45 9 -70 3 -25 8 -56 11 -70 3 -14 8 -38 10 -55 83 -485 318
-1019 634 -1440 127 -169 392 -452 520 -555 24 -19 69 -55 100 -81 31 -25 81
-63 111 -84 30 -22 56 -43 58 -47 2 -5 7 -8 11 -8 5 0 49 -27 99 -60 51 -33
96 -60 102 -60 5 0 10 -4 10 -10 0 -5 4 -10 9 -10 4 0 53 -25 109 -55 228
-126 570 -258 802 -311 19 -4 37 -8 40 -9 119 -28 264 -54 400 -70 205 -25
595 -25 780 0 14 1 50 6 80 10 193 23 490 98 700 177 532 197 991 526 1380
989 8 9 26 32 40 49 14 17 32 40 40 50 8 10 42 57 75 104 219 313 403 706 504
1076 34 124 59 240 52 240 -4 0 -24 -29 -45 -65 -72 -124 -303 -457 -336 -485
-3 -3 -28 -32 -54 -65 -97 -120 -266 -299 -383 -405 -402 -363 -819 -570
-1245 -616 -106 -12 -390 -6 -533 11 -134 16 -212 29 -310 51 -38 9 -78 17
-87 19 -9 2 -52 13 -95 25 -572 160 -1048 485 -1332 909 -24 36 -52 78 -62 92
-26 39 -113 216 -138 284 -13 33 -27 69 -31 80 -28 66 -71 234 -85 331 -4 21
-8 50 -11 64 -18 104 -24 366 -11 515 67 808 589 1467 1362 1720 217 71 389
99 610 99 316 1 572 -64 843 -215 199 -111 334 -225 452 -381 124 -164 217
-378 246 -563 3 -22 9 -58 13 -80 8 -49 6 -254 -3 -313 -11 -66 -45 -170 -76
-234 -103 -209 -275 -360 -494 -434 -348 -119 -640 -30 -803 244 -178 302
-114 664 151 846 107 73 245 112 372 104 74 -5 71 4 -12 33 -147 53 -292 76
-462 73 -158 -2 -183 -5 -311 -41 -106 -29 -204 -74 -283 -129 -71 -49 -204
-185 -251 -256 -38 -58 -127 -230 -131 -251 -1 -7 -4 -17 -8 -22 -6 -9 -44
-152 -53 -196 -30 -152 -24 -409 14 -554 35 -137 52 -186 101 -290 186 -391
559 -682 991 -773 134 -29 186 -34 345 -37 337 -5 662 78 915 235 311 193 658
568 867 935 120 212 205 445 228 623 2 19 18 94 31 152 8 36 10 302 3 375 -10
97 -20 175 -25 195 -2 8 -7 31 -10 50 -15 87 -72 297 -117 430 -85 250 -219
502 -376 710 -36 47 -67 87 -71 90 -3 3 -23 26 -43 51 -76 95 -278 290 -401
387 -220 174 -524 358 -747 451 -53 22 -80 34 -152 65 -52 22 -298 102 -358
116 -30 7 -62 15 -70 18 -51 18 -288 61 -425 78 -112 13 -527 28 -538 18z"/>
</g>
</svg>
