<svg xmlns="http://www.w3.org/2000/svg" viewBox="8335 3239 140 140">
  <defs>
    <style>
      .cls-1 {
        fill: #999;
      }

      .cls-2 {
        fill: #fff;
      }
    </style>
  </defs>
  <g id="Group_6" data-name="Group 6" transform="translate(7860 1713)">
    <path id="Path_31" data-name="Path 31" class="cls-1" d="M70,0A70,70,0,1,1,0,70,70,70,0,0,1,70,0Z" transform="translate(475 1526)"/>
    <path id="Path_28" data-name="Path 28" class="cls-2" d="M-7811.6,118H-7908.4a65.914,65.914,0,0,1-1.6-14.5,65.25,65.25,0,0,1,2.732-18.8,60.459,60.459,0,0,1,7.587-16.193,53.934,53.934,0,0,1,11.525-12.534,47.072,47.072,0,0,1,14.546-7.82,26.169,26.169,0,0,1-8.983-9.28A26,26,0,0,1-7886,26a25.845,25.845,0,0,1,2.043-10.12,25.912,25.912,0,0,1,5.572-8.264,25.911,25.911,0,0,1,8.264-5.572A25.839,25.839,0,0,1-7860,0a25.836,25.836,0,0,1,10.121,2.043,25.911,25.911,0,0,1,8.264,5.572,25.912,25.912,0,0,1,5.572,8.264A25.845,25.845,0,0,1-7834,26a26,26,0,0,1-3.407,12.876,26.168,26.168,0,0,1-8.982,9.28,47.068,47.068,0,0,1,14.545,7.82,53.958,53.958,0,0,1,11.525,12.534,60.461,60.461,0,0,1,7.587,16.193A65.228,65.228,0,0,1-7810,103.5a65.889,65.889,0,0,1-1.6,14.5Z" transform="translate(8405 1548)"/>
  </g>
</svg>
