<svg xmlns="http://www.w3.org/2000/svg" viewBox="0 0 950 256"><path d="M168.25 213.52c-49.9 0-90.47-29.06-93.21-75.1-2.45-41.61 23.35-65 43.31-73.44 18.71-8.05 45-11.51 69.62 7.64a48.53 48.53 0 0117 42.22 31.37 31.37 0 01-23.58 26.32c-21.93 6-32.19-12.68-30.71-25.76a21.69 21.69 0 0124.16-18.9c.5.06 1 .14 1.48.23-1.05-1.89-43.26-17-57 23.22a50.56 50.56 0 0012.72 50.47c20.93 21.81 54.81 18.07 71.8 8.05 15-8.7 38.91-34.53 41.69-59.77 0 0 5.19-14.24-4.71-43.18C226 32.14 177.14 3 130.42 3 60.19 3 3.25 55.56 3.25 125.83A127.17 127.17 0 00130.42 253c61.33 0 109.18-43.46 120.33-101.26-.16.41-32.75 61.78-82.5 61.78z" fill="#ffb405"/><path d="M441.84 200.37c-7 3.52-21.12 7-39.16 7-41.8 0-73.26-26.4-73.26-75 0-46.42 31.46-77.88 77.44-77.88 18.48 0 30.14 4 35.2 6.6l-4.62 15.62c-7.26-3.52-17.6-6.16-29.92-6.16-34.76 0-57.86 22.22-57.86 61.16 0 36.3 20.9 59.62 57 59.62 11.66 0 23.54-2.42 31.24-6.16zm146.08-70.84c0 51-31 78.1-68.86 78.1-39.16 0-66.66-30.36-66.66-75.24 0-47.08 29.26-77.88 68.86-77.88 40.48 0 66.66 31.02 66.66 75.02zM472.86 132c0 31.68 17.16 60.06 47.3 60.06 30.36 0 47.52-27.94 47.52-61.6 0-29.48-15.4-60.28-47.3-60.28-31.68-.05-47.52 29.21-47.52 61.82zm160.82 26.57l-15.4 46.64h-19.8l50.38-148.28H672l50.6 148.28h-20.5l-15.84-46.64zm48.62-15l-14.52-42.68c-3.3-9.68-5.5-18.48-7.7-27.06h-.44c-2.2 8.8-4.62 17.82-7.48 26.84l-14.52 42.9zm59.4 38.32a67.83 67.83 0 0034.3 9.68c19.58 0 31-10.34 31-25.3 0-13.86-7.92-21.78-27.94-29.48-24.2-8.58-39.16-21.12-39.16-42 0-23.1 19.14-40.26 48-40.26 15.18 0 26.18 3.52 32.78 7.26l-5.28 15.6a59.06 59.06 0 00-28.16-7c-20.24 0-27.94 12.1-27.94 22.22 0 13.86 9 20.68 29.48 28.6 25.08 9.68 37.84 21.78 37.84 43.56 0 22.88-16.94 42.68-51.92 42.68-14.3 0-29.92-4.18-37.84-9.46zM881 73.21h-45.1V56.93h109.74v16.28h-45.32v132H881z" fill="#fff"/></svg>