<svg version="1.0" xmlns="http://www.w3.org/2000/svg" width="933.333" height="933.333" viewBox="0 0 700 700"><path d="M341.7 10.6c-.1.1-4.9.5-10.6.8-10.3.6-26 2.5-34.1 4.1-1.4.3-5.2 1-8.5 1.6-42.6 7.6-89.9 26.8-126.6 51.3-12.7 8.5-12.8 8.5-22.4 16-12.2 9.6-15.1 12.2-29.1 26.1-26.9 26.6-46.1 53-62.8 86.5-9.5 19.1-20.6 49.1-24.1 65-2.4 11.4-5.5 27.4-6 31.4-.4 2.7-.9 5.8-1.1 7-.2 1.1-.6 5-.9 8.6-.4 3.6-.8 8.5-1.1 11-.7 7-.7 39.6 0 48 .9 10 1.6 17 2.1 20 .2 1.4.6 4.5.9 7 .3 2.5.8 5.6 1.1 7 .3 1.4.8 3.8 1 5.5 8.3 48.5 31.8 101.9 63.4 144 12.7 16.9 39.2 45.2 52 55.5 2.4 1.9 6.9 5.5 10 8.1 3.1 2.5 8.1 6.3 11.1 8.4 3 2.2 5.6 4.3 5.8 4.7.2.5.7.8 1.1.8.5 0 4.9 2.7 9.9 6 5.1 3.3 9.6 6 10.2 6 .5 0 1 .4 1 1 0 .5.4 1 .9 1 .4 0 5.3 2.5 10.9 5.5 22.8 12.6 57 25.8 80.2 31.1 1.9.4 3.7.8 4 .9 11.9 2.8 26.4 5.4 40 7 20.5 2.5 59.5 2.5 78 0 1.4-.1 5-.6 8-1 19.3-2.3 49-9.8 70-17.7 53.2-19.7 99.1-52.6 138-98.9.8-.9 2.6-3.2 4-4.9 1.4-1.7 3.2-4 4-5 .8-1 4.2-5.7 7.5-10.4 21.9-31.3 40.3-70.6 50.4-107.6 3.4-12.4 5.9-24 5.2-24-.4 0-2.4 2.9-4.5 6.5-7.2 12.4-30.3 45.7-33.6 48.5-.3.3-2.8 3.2-5.4 6.5-9.7 12-26.6 29.9-38.3 40.5-40.2 36.3-81.9 57-124.5 61.6-10.6 1.2-39 .6-53.3-1.1-13.4-1.6-21.2-2.9-31-5.1-3.8-.9-7.8-1.7-8.7-1.9-.9-.2-5.2-1.3-9.5-2.5-57.2-16-104.8-48.5-133.2-90.9-2.4-3.6-5.2-7.8-6.2-9.2-2.6-3.9-11.3-21.6-13.8-28.4-1.3-3.3-2.7-6.9-3.1-8-2.8-6.6-7.1-23.4-8.5-33.1-.4-2.1-.8-5-1.1-6.4-1.8-10.4-2.4-36.6-1.1-51.5 6.7-80.8 58.9-146.7 136.2-172 21.7-7.1 38.9-9.9 61-9.9 31.6-.1 57.2 6.4 84.3 21.5 19.9 11.1 33.4 22.5 45.2 38.1 12.4 16.4 21.7 37.8 24.6 56.3.3 2.2.9 5.8 1.3 8 .8 4.9.6 25.4-.3 31.3-1.1 6.6-4.5 17-7.6 23.4-10.3 20.9-27.5 36-49.4 43.4-34.8 11.9-64 3-80.3-24.4-17.8-30.2-11.4-66.4 15.1-84.6 10.7-7.3 24.5-11.2 37.2-10.4 7.4.5 7.1-.4-1.2-3.3-14.7-5.3-29.2-7.6-46.2-7.3-15.8.2-18.3.5-31.1 4.1-10.6 2.9-20.4 7.4-28.3 12.9-7.1 4.9-20.4 18.5-25.1 25.6-3.8 5.8-12.7 23-13.1 25.1-.1.7-.4 1.7-.8 2.2-.6.9-4.4 15.2-5.3 19.6-3 15.2-2.4 40.9 1.4 55.4 3.5 13.7 5.2 18.6 10.1 29 18.6 39.1 55.9 68.2 99.1 77.3 13.4 2.9 18.6 3.4 34.5 3.7 33.7.5 66.2-7.8 91.5-23.5 31.1-19.3 65.8-56.8 86.7-93.5 12-21.2 20.5-44.5 22.8-62.3.2-1.9 1.8-9.4 3.1-15.2.8-3.6 1-30.2.3-37.5-1-9.7-2-17.5-2.5-19.5-.2-.8-.7-3.1-1-5-1.5-8.7-7.2-29.7-11.7-43-8.5-25-21.9-50.2-37.6-71-3.6-4.7-6.7-8.7-7.1-9-.3-.3-2.3-2.6-4.3-5.1-7.6-9.5-27.8-29-40.1-38.7-22-17.4-52.4-35.8-74.7-45.1-5.3-2.2-8-3.4-15.2-6.5C475.6 31.4 451 23.4 445 22c-3-.7-6.2-1.5-7-1.8-5.1-1.8-28.8-6.1-42.5-7.8-11.2-1.3-52.7-2.8-53.8-1.8z" fill="#FFB405"/></svg>