<svg xmlns="http://www.w3.org/2000/svg" viewBox="8335 3239 140 140"><g id="Group_6" data-name="Group 6" transform="translate(7860 1713)"><path id="Path_31" data-name="Path 31" d="M70 0A70 70 0 110 70 70 70 0 0170 0z" transform="translate(475 1526)" fill="#999"/><path id="Path_28" data-name="Path 28" d="M-7811.6 118h-96.8a65.914 65.914 0 01-1.6-14.5 65.25 65.25 0 012.732-18.8 60.459 60.459 0 017.587-16.193 53.934 53.934 0 0111.525-12.534 47.072 47.072 0 0114.546-7.82 26.169 26.169 0 01-8.983-9.28A26 26 0 01-7886 26a25.845 25.845 0 012.043-10.12 25.912 25.912 0 015.572-8.264 25.911 25.911 0 018.264-5.572A25.839 25.839 0 01-7860 0a25.836 25.836 0 0110.121 2.043 25.911 25.911 0 018.264 5.572 25.912 25.912 0 015.572 8.264A25.845 25.845 0 01-7834 26a26 26 0 01-3.407 12.876 26.168 26.168 0 01-8.982 9.28 47.068 47.068 0 0114.545 7.82 53.958 53.958 0 0111.525 12.534 60.461 60.461 0 017.587 16.193A65.228 65.228 0 01-7810 103.5a65.889 65.889 0 01-1.6 14.5z" transform="translate(8405 1548)" fill="#fff"/></g></svg>